Coordinates
version=1
nRows=34
nColumns=33
inDegrees=yes

Units are S.I. units (second, meters, Newtons, ...)
Angles are in degrees.

endheader
time	ground_thorax_rot_x	ground_thorax_rot_y	ground_thorax_rot_z	ground_thorax_tx	ground_thorax_ty	ground_thorax_tz	clav_prot_r	clav_elev_r	scapula_abduction_r	scapula_elevation_r	scapula_upward_rot_r	scapula_winging_r	shoulder_elv_r	plane_of_elev_r	axial_rot_r	elbow_flexion_r	pro_sup_r	wrist_flex_r	wrist_dev_r	clav_prot_l	clav_elev_l	scapula_abduction_l	scapula_elevation_l	scapula_upward_rot_l	scapula_winging_l	shoulder_elv_l	plane_of_elev_l	axial_rot_l	elbow_flexion_l	pro_sup_l	wrist_flex_l	wrist_dev_l	
3.9700	-39.614378	-5.230037	-5.067803	-0.361810	801.679631	5.111745	3.798083	-45.000000	44.999997	-45.000000	-5.101323	-3325.815344	-2637.893674	151.095790	-107.553033	729.606798	5.284055	16.762099	12.509742	13.361996	41.040804	-44.999999	-38.602959	-18.779498	1157.780626	-2454.229003	24.353562	-23.416270	724.495151	20.427184	12.706121	-17.738888	
3.9800	-39.383846	-5.376703	-4.930743	0.089771	801.277759	4.817871	3.856122	-45.000000	44.999995	-45.000000	-5.361719	-3325.791830	-2637.871030	151.133848	-107.437558	729.453088	5.416623	16.657280	12.486953	13.531852	40.961244	-44.999999	-38.527425	-18.820415	1157.859294	-2454.296440	24.373178	-23.459507	724.513941	20.499785	12.601802	-17.740841	
3.9900	-39.155562	-5.531430	-4.780045	0.420163	800.880427	4.499683	3.912760	-45.000000	44.999991	-45.000000	-5.638080	-3325.795662	-2637.840364	151.165010	-107.318615	729.311620	5.573977	16.555258	12.465337	13.740119	40.856683	-44.999998	-38.450477	-18.877709	1157.957858	-2454.369267	24.394413	-23.518072	724.532948	20.565120	12.517819	-17.737467	
4.0000	-38.934662	-5.612769	-4.702350	0.486642	800.500417	4.127460	3.937055	-45.000000	44.999983	-45.000000	-5.799316	-3325.832571	-2637.819364	151.202660	-107.180422	729.177387	5.793690	16.488229	12.441789	13.809850	40.786332	-44.999996	-38.383262	-18.861739	1158.048701	-2454.421571	24.411858	-23.496952	724.539588	20.601773	12.448370	-17.762803	
4.0100	-38.724391	-5.652511	-4.658607	0.272695	800.133179	3.703179	3.945847	-45.000000	44.999970	-45.000000	-5.911212	-3325.908016	-2637.798298	151.237323	-107.032595	729.052433	6.074576	16.446591	12.419959	13.818743	40.732738	-44.999993	-38.334590	-18.827192	1158.138610	-2454.466187	24.427943	-23.442599	724.535762	20.607811	12.398848	-17.803665	
4.0200	-38.529767	-5.659763	-4.640394	-0.257265	799.777855	3.226642	3.944698	-45.000000	44.999946	-45.000000	-5.997763	-3326.017253	-2637.773333	151.268331	-106.875077	728.939642	6.421737	16.427583	12.397623	13.786158	40.699663	-44.999987	-38.317101	-18.795546	1158.225907	-2454.507228	24.438648	-23.366212	724.527214	20.576212	12.367781	-17.856666	
4.0300	-38.353092	-5.651034	-4.626398	-1.105290	799.431309	2.707230	3.945795	-45.000000	44.999903	-45.000000	-6.099458	-3326.166290	-2637.744443	151.288703	-106.714123	728.837680	6.828319	16.427266	12.377268	13.747242	40.690656	-44.999976	-38.326811	-18.799396	1158.315281	-2454.539622	24.447631	-23.292524	724.512128	20.504937	12.349106	-17.916998	
4.0400	-38.197656	-5.645774	-4.599684	-2.259441	799.091163	2.158306	3.959307	-45.000000	44.999827	-45.000000	-6.257658	-3326.341584	-2637.706372	151.299323	-106.547149	728.749873	7.286603	16.437303	12.352870	13.734040	40.701859	-44.999958	-38.369723	-18.867752	1158.407224	-2454.566557	24.448503	-23.246690	724.502231	20.397642	12.337740	-17.977515	
4.0500	-38.068137	-5.650655	-4.552496	-3.709922	798.757353	1.592168	3.991132	-45.000000	44.999690	-45.000000	-6.480438	-3326.541609	-2637.664952	151.309170	-106.371600	728.680934	7.789750	16.460170	12.326802	13.746353	40.740788	-44.999924	-38.441469	-19.008395	1158.506951	-2454.580948	24.440262	-23.232914	724.504196	20.258260	12.320917	-18.042596	
4.0600	-37.966442	-5.674850	-4.480161	-5.449517	798.430568	1.018835	4.045523	-45.000000	44.999444	-45.000000	-6.779019	-3326.751709	-2637.618572	151.326437	-106.183033	728.632161	8.336187	16.492113	12.290558	13.789728	40.811106	-44.999864	-38.544688	-19.235307	1158.614828	-2454.580443	24.416924	-23.255486	724.532513	20.095536	12.294363	-18.110670	
4.0700	-37.890776	-5.718030	-4.378019	-7.473639	798.110895	0.445566	4.126314	-45.000000	44.999004	-45.000000	-7.149801	-3326.977653	-2637.568344	151.352431	-105.979561	728.603375	8.924015	16.534091	12.248002	13.864954	40.907553	-44.999757	-38.671826	-19.547750	1158.733018	-2454.566984	24.383443	-23.318009	724.579860	19.920797	12.252917	-18.182448	
4.0800	-37.834756	-5.782013	-4.247475	-9.780255	797.797482	-0.122960	4.238737	-45.000000	44.998217	-45.000000	-7.586709	-3327.207636	-2637.504636	151.392250	-105.754254	728.593945	9.554434	16.581968	12.190766	13.969504	41.023414	-44.999565	-38.818013	-19.953595	1158.855348	-2454.541679	24.338879	-23.429919	724.643676	19.747217	12.197997	-18.252516	
4.0900	-37.793657	-5.862064	-4.089793	-12.369179	797.488875	-0.684239	4.390320	-45.000000	44.996805	-45.000000	-8.069742	-3327.449925	-2637.426680	151.447876	-105.498366	728.604078	10.227815	16.634277	12.122239	14.102835	41.143150	-44.999221	-38.973633	-20.442434	1158.984828	-2454.509536	24.291370	-23.606945	724.710544	19.585622	12.124794	-18.318327	
4.1000	-37.760506	-5.954833	-3.909593	-15.241491	797.183859	-1.237374	4.583523	-45.000000	44.994279	-45.000000	-8.585531	-3327.710933	-2637.337798	151.513493	-105.204067	728.625497	10.944681	16.685725	12.037139	14.259552	41.258343	-44.998603	-39.129265	-21.009227	1159.122603	-2454.469982	24.242168	-23.863405	724.778655	19.443142	12.031035	-18.374244	
4.1100	-37.734329	-6.057120	-3.704134	-18.398492	796.882443	-1.782490	4.814741	-45.000000	44.989748	-45.000000	-9.128932	-3328.010843	-2637.249162	151.579039	-104.859714	728.655931	11.702826	16.735840	11.943294	14.436831	41.347784	-44.997499	-39.280093	-21.636799	1159.273515	-2454.431595	24.193623	-24.201372	724.840144	19.322061	11.914431	-18.418215	
4.1200	-37.715585	-6.180022	-3.459149	-21.840758	796.586698	-2.320111	5.078745	-45.000000	44.981646	-45.000000	-9.711949	-3328.358655	-2637.172473	151.641852	-104.452519	728.694293	12.500113	16.784879	11.842035	14.636107	41.401960	-44.995518	-39.425955	-22.338784	1159.435954	-2454.393708	24.140260	-24.604778	724.902253	19.218158	11.774243	-18.447565	
4.1300	-37.710634	-6.347152	-3.144342	-25.566995	796.301222	-2.850614	5.367778	-45.000000	44.967095	-45.000000	-10.374830	-3328.758325	-2637.112856	151.701227	-103.960608	728.743763	13.338367	16.839104	11.738216	14.874904	41.416313	-44.991979	-39.580968	-23.146911	1159.600124	-2454.359489	24.075442	-25.018934	724.972706	19.118682	11.627500	-18.466827	
4.1400	-37.720779	-6.557400	-2.760910	-29.573582	796.033100	-3.373867	5.665828	-45.000000	44.941138	-45.000000	-11.126464	-3329.202204	-2637.070896	151.755407	-103.401287	728.802481	14.214460	16.898134	11.632340	15.145363	41.399418	-44.985609	-39.749945	-24.060451	1159.763685	-2454.329641	23.999624	-25.426923	725.056141	19.020722	11.478880	-18.477336	
4.1500	-37.744097	-6.816486	-2.304264	-33.854056	795.791620	-3.888963	5.957813	-45.000000	44.894335	-45.000000	-11.997849	-3329.673428	-2637.030502	151.803310	-102.779829	728.877942	15.127722	16.968078	11.521993	15.444680	41.360765	-44.974284	-39.930390	-25.087024	1159.918033	-2454.295554	23.913564	-25.776559	725.148037	18.918966	11.362393	-18.487374	
4.1600	-37.780237	-7.108983	-1.797269	-38.398832	795.587703	-4.394103	6.238038	-45.000000	44.811353	-45.000000	-12.987785	-3330.141972	-2636.982788	151.847010	-102.128617	728.967924	16.075506	17.043706	11.401290	15.754545	41.313169	-44.953763	-40.127064	-26.216116	1160.056418	-2454.252185	23.827793	-26.077692	725.243614	18.817940	11.282638	-18.499382	
4.1700	-37.832296	-7.438801	-1.235039	-43.194817	795.433300	-4.886690	6.504968	-45.000000	44.660323	-45.000000	-14.139584	-3330.579025	-2636.913660	151.886285	-101.460881	729.073479	17.061335	17.124521	11.263763	16.079625	41.266679	-44.917655	-40.352701	-27.471180	1160.158690	-2454.189508	23.751924	-26.291124	725.338103	18.713078	11.259654	-18.519691	
4.1800	-37.907627	-7.792408	-0.630301	-48.225691	795.340752	-5.363587	6.756703	-45.000000	44.396444	-45.000000	-15.473535	-3330.955165	-2636.824841	151.914882	-100.822334	729.183533	18.082901	17.198699	11.112698	16.394668	41.222123	-44.851159	-40.631969	-28.843162	1160.210803	-2454.109311	23.700479	-26.459810	725.432801	18.615094	11.259165	-18.544851	
4.1900	-38.022743	-8.207140	0.081418	-53.472300	795.322319	-5.821571	6.984719	-45.000000	43.905172	-45.000000	-17.144746	-3331.217329	-2636.705563	151.926324	-100.213541	729.297982	19.143593	17.265566	10.941358	16.730283	41.185965	-44.737116	-41.007551	-30.450228	1160.162004	-2453.985915	23.700589	-26.465130	725.523592	18.507892	11.306550	-18.583708	
4.2000	-38.197811	-8.747511	0.981005	-58.912976	795.389810	-6.257640	7.166358	-45.000000	43.077048	-45.000000	-19.347073	-3331.311353	-2636.541259	151.901669	-99.669710	729.413109	20.238908	17.320084	10.763574	17.056701	41.160667	-44.518680	-41.536615	-32.380913	1159.952924	-2453.799984	23.768832	-26.296756	725.608032	18.401582	11.351412	-18.628314	
4.2100	-38.434811	-9.464661	2.123991	-64.524307	795.554245	-6.669670	7.304274	-45.000000	41.876107	-45.000000	-22.201889	-3331.223262	-2636.302130	151.822230	-99.232996	729.532790	21.355794	17.371546	10.584527	17.384276	41.145833	-44.166898	-42.221887	-34.637112	1159.584847	-2453.542995	23.887191	-25.998748	725.693697	18.320369	11.407725	-18.684298	
4.2200	-38.706159	-10.313092	3.420261	-70.281823	795.825597	-7.056834	7.433879	-45.000000	40.455818	-45.000000	-25.436706	-3331.038324	-2636.007514	151.710234	-98.805209	729.660654	22.484535	17.418874	10.403356	17.651090	41.121985	-43.675006	-42.986777	-36.978594	1159.133056	-2453.236240	23.996785	-25.813547	725.791523	18.310592	11.442768	-18.750613	
4.2300	-38.975045	-11.201719	4.754574	-76.161006	796.212644	-7.420267	7.542145	-45.000000	38.946737	-45.000000	-28.812010	-3330.822515	-2635.651622	151.568321	-98.423925	729.795424	23.607148	17.470592	10.231116	17.843281	41.066554	-43.111397	-43.717555	-39.214373	1158.717309	-2452.906927	24.070381	-25.829202	725.906004	18.387400	11.471004	-18.835541	
4.2400	-39.209333	-12.031739	5.986350	-82.137233	796.723071	-7.762735	7.637352	-45.000000	37.545675	-45.000000	-31.972612	-3330.675159	-2635.269249	151.424381	-98.033022	729.940290	24.721838	17.527445	10.074632	17.917489	40.964909	-42.527234	-44.319304	-41.120838	1158.427797	-2452.593023	24.070099	-26.163555	726.034717	18.561934	11.460019	-18.934354	
4.2500	-39.386611	-12.715679	7.012417	-88.186147	797.363383	-8.088793	7.719252	-45.000000	36.365849	-45.000000	-34.726880	-3330.645502	-2634.869459	151.279444	-97.727201	730.090410	25.826861	17.596359	9.944069	17.900823	40.816407	-41.992928	-44.728071	-42.592220	1158.339095	-2452.321841	23.990079	-26.819650	726.180889	18.831736	11.419670	-19.046442	
4.2600	-39.501119	-13.195492	7.755872	-94.283691	798.139963	-8.402983	7.823296	-45.000000	35.515349	-45.000000	-36.836549	-3330.790427	-2634.510125	151.170254	-97.384293	730.249393	26.948784	17.674352	9.821290	17.811909	40.631481	-41.529610	-44.933187	-43.561836	1158.445002	-2452.104532	23.821632	-27.758530	726.341101	19.177449	11.360585	-19.171878	
4.2700	-39.571580	-13.485175	8.259804	-100.406535	799.059997	-8.708457	7.915118	-45.000000	34.893040	-45.000000	-38.471667	-3331.040229	-2634.179355	151.079859	-97.109223	730.409997	28.103095	17.762124	9.710041	17.693845	40.437154	-41.141430	-44.994285	-44.184163	1158.686783	-2451.928852	23.614719	-28.793364	726.510025	19.568333	11.299678	-19.309929	
4.2800	-39.627821	-13.648153	8.599442	-106.531948	800.132912	-9.004430	8.009367	-45.000000	34.423973	-45.000000	-39.773193	-3331.349501	-2633.891967	151.013895	-96.827942	730.580724	29.311173	17.854678	9.590344	17.557037	40.263619	-40.778614	-45.000000	-44.576860	1158.971471	-2451.779285	23.383093	-29.848726	726.682800	19.992134	11.246699	-19.460535	
4.2900	-39.682139	-13.742369	8.845211	-112.637276	801.369105	-9.287084	8.111275	-45.000000	34.039110	-45.000000	-40.919133	-3331.675176	-2633.623517	150.952491	-96.584682	730.762685	30.573814	17.952641	9.460928	17.425385	40.126252	-40.409827	-45.000000	-44.832648	1159.256273	-2451.645303	23.135298	-30.910168	726.864798	20.453135	11.205426	-19.620757	
4.3000	-39.739096	-13.775938	9.004708	-118.699088	802.778696	-9.550128	8.249625	-45.000000	33.750797	-45.000000	-41.860438	-3332.035192	-2633.394134	150.911957	-96.249665	730.966721	31.889113	18.049559	9.299810	17.299110	40.014949	-40.031798	-45.000000	-44.949890	1159.532009	-2451.520610	22.862365	-31.998255	727.056328	20.945837	11.187558	-19.794124	
